<svg id="android" xmlns="http://www.w3.org/2000/svg" version="1.1">
	<path fill="#A4C739" stroke="none" d="M6.13,11.126c-0.894,0-1.624,0.731-1.624,1.624v6.496c0,0.895,0.73,1.624,1.624,1.624c0.893,0,1.624-0.729,1.624-1.624V12.75C7.754,11.856,7.023,11.126,6.13,11.126zM19.516,4.96l1.32-2.035c0.074-0.113,0.042-0.264-0.07-0.338c-0.113-0.074-0.266-0.041-0.34,0.072l-1.367,2.106c-0.93-0.36-1.966-0.561-3.059-0.561c-1.094,0-2.13,0.201-3.058,0.561l-1.368-2.106c-0.073-0.113-0.225-0.145-0.338-0.072c-0.113,0.074-0.145,0.225-0.072,0.338l1.321,2.035c-2.186,1.009-3.674,2.928-3.717,5.138h14.464C23.189,7.888,21.702,5.969,19.516,4.96zM12.898,8.062c-0.459,0-0.832-0.373-0.832-0.832s0.373-0.832,0.832-0.832c0.46,0,0.832,0.373,0.832,0.832S13.358,8.062,12.898,8.062zM19.102,8.062c-0.459,0-0.832-0.373-0.832-0.832s0.373-0.832,0.832-0.832s0.832,0.373,0.832,0.832S19.561,8.062,19.102,8.062zM25.87,11.126c-0.894,0-1.624,0.731-1.624,1.624v6.496c0,0.895,0.73,1.624,1.624,1.624s1.624-0.729,1.624-1.624V12.75C27.494,11.856,26.764,11.126,25.87,11.126zM8.756,22.904c0,0.723,0.591,1.312,1.314,1.312h1.363v3.61c0,0.896,0.731,1.624,1.625,1.624c0.893,0,1.624-0.729,1.624-1.624v-3.611h2.636v3.61c0,0.896,0.729,1.624,1.625,1.624c0.894,0,1.623-0.729,1.623-1.624v-3.61h1.363c0.723,0,1.312-0.591,1.312-1.312V11.07H8.756V22.904z" />
</svg>